<?xml version="1.0" standalone="no"?>
<!DOCTYPE svg PUBLIC "-//W3C//DTD SVG 20010904//EN"
 "http://www.w3.org/TR/2001/REC-SVG-20010904/DTD/svg10.dtd">
<svg version="1.0" xmlns="http://www.w3.org/2000/svg"
 width="275.000000pt" height="183.000000pt" viewBox="0 0 275.000000 183.000000"
 preserveAspectRatio="xMidYMid meet">
<metadata>
Created by potrace 1.16, written by Peter Selinger 2001-2019
</metadata>
<g transform="translate(0.000000,183.000000) scale(0.100000,-0.100000)"
fill="#000000" stroke="none">
<path d="M1281 1425 c-27 -63 -2 -157 62 -238 l30 -38 25 23 c13 13 38 50 53
83 33 68 39 148 14 181 -14 18 -14 17 -15 -13 0 -65 -14 -81 -70 -84 -59 -4
-69 5 -80 76 l-7 40 -12 -30z"/>
<path d="M1126 1331 c-3 -5 -7 -29 -7 -53 -2 -44 1 -49 89 -147 51 -56 95
-113 98 -125 4 -16 -8 -50 -36 -106 l-42 -83 -31 53 c-29 51 -30 53 -12 66 13
10 16 17 9 24 -7 7 -8 31 -2 71 7 44 6 64 -2 75 -20 23 -24 18 -44 -51 -19
-68 -26 -75 -46 -50 -15 18 -40 20 -40 4 0 -6 13 -27 30 -45 17 -20 27 -40 24
-49 -4 -9 -1 -15 7 -15 8 0 38 -48 68 -107 40 -78 71 -123 118 -172 l64 -66
-6 50 c-4 33 -15 59 -31 76 -13 14 -24 30 -24 36 0 25 53 123 66 123 9 0 27
-27 43 -62 l29 -63 -28 -30 c-19 -20 -30 -46 -35 -79 -6 -46 -6 -48 13 -35 50
36 127 141 170 231 32 68 51 97 62 95 9 -1 15 6 15 18 0 11 10 36 23 56 12 20
22 39 22 43 0 13 -24 5 -45 -14 l-21 -19 -18 69 c-18 72 -25 80 -45 56 -8 -10
-9 -30 -2 -72 5 -35 5 -63 0 -68 -5 -6 -2 -17 8 -28 16 -18 16 -22 -7 -64 -14
-25 -28 -48 -33 -51 -11 -6 -79 142 -79 173 0 14 8 35 19 47 173 194 174 196
171 240 -4 60 -33 62 -78 5 -19 -24 -68 -83 -109 -131 -72 -83 -76 -87 -91
-69 -77 96 -214 252 -220 252 -5 0 -11 -4 -14 -9z"/>
<path d="M995 1084 c-78 -82 -78 -78 5 -252 40 -83 77 -149 81 -146 5 3 14 22
20 43 11 37 9 42 -56 160 l-66 123 36 60 c19 33 34 62 33 63 -2 1 -25 -22 -53
-51z"/>
<path d="M1735 1073 l36 -61 -66 -123 c-65 -118 -67 -123 -56 -160 6 -21 15
-40 20 -43 10 -6 151 286 151 312 0 9 -19 38 -43 63 -69 75 -82 78 -42 12z"/>
<path d="M1166 632 c-14 -48 -26 -92 -26 -97 0 -6 -11 -22 -24 -36 -22 -23
-33 -26 -121 -32 -91 -5 -115 -10 -103 -22 32 -32 934 -32 966 0 12 11 -11 16
-97 22 -118 8 -133 20 -168 141 -14 48 -27 91 -30 95 -3 4 -23 -18 -44 -49
-39 -54 -40 -58 -33 -115 l7 -59 -117 0 -117 0 7 58 c6 56 4 61 -34 119 l-39
62 -27 -87z"/>
</g>
</svg>
